# xmcd
# Track frame offsets:
# 150
# 14426
# 31567
# 51414
# 68026
#
# Disc length: 1139 seconds
# Revision: 7
# Processed by: cddbd v1.5.1PL0 Copyright (c) Steve Scherf et al.
# Submitted via: VisiTrax 2.9.10.228 - For more info visit www.synapsa.com
#
DISCID=37047105
DTITLE=Νότης Σφακιανάκης - Τέλος ...δίχως τέλος!
DYEAR=2001
DGENRE=Greek
TTITLE0=Οι σκιές
TTITLE1=Συνταγή
TTITLE2=Φώς μου
TTITLE3=Καρντάσης
TTITLE4=Τέλος δίχως τέλος
EXTD=
EXTT0=
EXTT1=
EXTT2=
EXTT3=
EXTT4=
PLAYORDER=
